<mxfile host="app.diagrams.net" modified="2023-06-11T10:20:46.351Z" agent="Mozilla/5.0 (Macintosh; Intel Mac OS X 10_15_7) AppleWebKit/537.36 (KHTML, like Gecko) Chrome/113.0.0.0 Safari/537.36" etag="2eTATFPk7_GTV8YT9EKs" version="21.2.1" type="device">
  <diagram name="Page-1" id="OQDrsnSIPpqFVafJ9crs">
    <mxGraphModel dx="2901" dy="982" grid="1" gridSize="10" guides="1" tooltips="1" connect="1" arrows="1" fold="1" page="1" pageScale="1" pageWidth="850" pageHeight="1100" math="0" shadow="0">
      <root>
        <mxCell id="0" />
        <mxCell id="1" parent="0" />
        <mxCell id="-7LQJF7Gzw4gqhL1HugW-8" style="edgeStyle=orthogonalEdgeStyle;rounded=0;orthogonalLoop=1;jettySize=auto;html=1;" parent="1" source="-7LQJF7Gzw4gqhL1HugW-2" target="-7LQJF7Gzw4gqhL1HugW-6" edge="1">
          <mxGeometry relative="1" as="geometry" />
        </mxCell>
        <mxCell id="-7LQJF7Gzw4gqhL1HugW-2" value="TMDB 5000 Datasets" style="shape=image;html=1;verticalAlign=top;verticalLabelPosition=bottom;labelBackgroundColor=#ffffff;imageAspect=0;aspect=fixed;image=https://cdn1.iconfinder.com/data/icons/bootstrap-vol-3/16/filetype-csv-128.png" parent="1" vertex="1">
          <mxGeometry x="-350" y="680" width="88" height="88" as="geometry" />
        </mxCell>
        <mxCell id="-7LQJF7Gzw4gqhL1HugW-39" style="edgeStyle=orthogonalEdgeStyle;rounded=0;orthogonalLoop=1;jettySize=auto;html=1;" parent="1" source="-7LQJF7Gzw4gqhL1HugW-5" target="-7LQJF7Gzw4gqhL1HugW-18" edge="1">
          <mxGeometry relative="1" as="geometry">
            <Array as="points">
              <mxPoint x="520" y="997" />
              <mxPoint x="520" y="919" />
            </Array>
          </mxGeometry>
        </mxCell>
        <mxCell id="N6blT2cabdBR4F-H1D71-33" style="edgeStyle=orthogonalEdgeStyle;rounded=0;orthogonalLoop=1;jettySize=auto;html=1;entryX=0.5;entryY=0;entryDx=0;entryDy=0;entryPerimeter=0;" edge="1" parent="1" source="-7LQJF7Gzw4gqhL1HugW-6" target="-7LQJF7Gzw4gqhL1HugW-9">
          <mxGeometry relative="1" as="geometry" />
        </mxCell>
        <mxCell id="-7LQJF7Gzw4gqhL1HugW-6" value="movie-app-csv-bucket" style="sketch=0;outlineConnect=0;fontColor=#232F3E;gradientColor=none;fillColor=#3F8624;strokeColor=none;dashed=0;verticalLabelPosition=bottom;verticalAlign=top;align=center;html=1;fontSize=12;fontStyle=0;aspect=fixed;pointerEvents=1;shape=mxgraph.aws4.bucket;" parent="1" vertex="1">
          <mxGeometry x="-148.5" y="685" width="75" height="78" as="geometry" />
        </mxCell>
        <mxCell id="N6blT2cabdBR4F-H1D71-38" style="edgeStyle=orthogonalEdgeStyle;rounded=0;orthogonalLoop=1;jettySize=auto;html=1;entryX=0;entryY=0.5;entryDx=0;entryDy=0;entryPerimeter=0;" edge="1" parent="1" source="-7LQJF7Gzw4gqhL1HugW-9" target="-7LQJF7Gzw4gqhL1HugW-12">
          <mxGeometry relative="1" as="geometry">
            <Array as="points">
              <mxPoint x="20" y="914" />
              <mxPoint x="20" y="831" />
            </Array>
          </mxGeometry>
        </mxCell>
        <mxCell id="-7LQJF7Gzw4gqhL1HugW-9" value="SNS&lt;br&gt;" style="sketch=0;points=[[0,0,0],[0.25,0,0],[0.5,0,0],[0.75,0,0],[1,0,0],[0,1,0],[0.25,1,0],[0.5,1,0],[0.75,1,0],[1,1,0],[0,0.25,0],[0,0.5,0],[0,0.75,0],[1,0.25,0],[1,0.5,0],[1,0.75,0]];outlineConnect=0;fontColor=#232F3E;gradientColor=#FF4F8B;gradientDirection=north;fillColor=#BC1356;strokeColor=#ffffff;dashed=0;verticalLabelPosition=bottom;verticalAlign=top;align=center;html=1;fontSize=12;fontStyle=0;aspect=fixed;shape=mxgraph.aws4.resourceIcon;resIcon=mxgraph.aws4.sns;" parent="1" vertex="1">
          <mxGeometry x="-150" y="875" width="78" height="78" as="geometry" />
        </mxCell>
        <mxCell id="-7LQJF7Gzw4gqhL1HugW-15" style="edgeStyle=orthogonalEdgeStyle;rounded=0;orthogonalLoop=1;jettySize=auto;html=1;entryX=0;entryY=0.5;entryDx=0;entryDy=0;entryPerimeter=0;" parent="1" source="-7LQJF7Gzw4gqhL1HugW-12" target="-7LQJF7Gzw4gqhL1HugW-14" edge="1">
          <mxGeometry relative="1" as="geometry" />
        </mxCell>
        <mxCell id="-7LQJF7Gzw4gqhL1HugW-12" value="triggerFargate" style="sketch=0;points=[[0,0,0],[0.25,0,0],[0.5,0,0],[0.75,0,0],[1,0,0],[0,1,0],[0.25,1,0],[0.5,1,0],[0.75,1,0],[1,1,0],[0,0.25,0],[0,0.5,0],[0,0.75,0],[1,0.25,0],[1,0.5,0],[1,0.75,0]];outlineConnect=0;fontColor=#232F3E;gradientColor=#F78E04;gradientDirection=north;fillColor=#D05C17;strokeColor=#ffffff;dashed=0;verticalLabelPosition=bottom;verticalAlign=top;align=center;html=1;fontSize=12;fontStyle=0;aspect=fixed;shape=mxgraph.aws4.resourceIcon;resIcon=mxgraph.aws4.lambda;" parent="1" vertex="1">
          <mxGeometry x="120" y="792" width="78" height="78" as="geometry" />
        </mxCell>
        <mxCell id="-7LQJF7Gzw4gqhL1HugW-57" style="edgeStyle=orthogonalEdgeStyle;rounded=0;orthogonalLoop=1;jettySize=auto;html=1;entryX=0;entryY=0.5;entryDx=0;entryDy=0;entryPerimeter=0;" parent="1" source="-7LQJF7Gzw4gqhL1HugW-14" target="-7LQJF7Gzw4gqhL1HugW-43" edge="1">
          <mxGeometry relative="1" as="geometry">
            <Array as="points">
              <mxPoint x="409" y="690" />
            </Array>
          </mxGeometry>
        </mxCell>
        <mxCell id="N6blT2cabdBR4F-H1D71-20" style="edgeStyle=orthogonalEdgeStyle;rounded=0;orthogonalLoop=1;jettySize=auto;html=1;" edge="1" parent="1" source="-7LQJF7Gzw4gqhL1HugW-14" target="-7LQJF7Gzw4gqhL1HugW-18">
          <mxGeometry relative="1" as="geometry">
            <mxPoint x="580" y="920" as="targetPoint" />
            <Array as="points">
              <mxPoint x="520" y="831" />
              <mxPoint x="520" y="919" />
            </Array>
          </mxGeometry>
        </mxCell>
        <mxCell id="-7LQJF7Gzw4gqhL1HugW-14" value="csvDataProcessing" style="sketch=0;points=[[0,0,0],[0.25,0,0],[0.5,0,0],[0.75,0,0],[1,0,0],[0,1,0],[0.25,1,0],[0.5,1,0],[0.75,1,0],[1,1,0],[0,0.25,0],[0,0.5,0],[0,0.75,0],[1,0.25,0],[1,0.5,0],[1,0.75,0]];outlineConnect=0;fontColor=#232F3E;gradientColor=#F78E04;gradientDirection=north;fillColor=#D05C17;strokeColor=#ffffff;dashed=0;verticalLabelPosition=bottom;verticalAlign=top;align=center;html=1;fontSize=12;fontStyle=0;aspect=fixed;shape=mxgraph.aws4.resourceIcon;resIcon=mxgraph.aws4.fargate;" parent="1" vertex="1">
          <mxGeometry x="370" y="792" width="78" height="78" as="geometry" />
        </mxCell>
        <mxCell id="-7LQJF7Gzw4gqhL1HugW-54" style="edgeStyle=orthogonalEdgeStyle;rounded=0;orthogonalLoop=1;jettySize=auto;html=1;" parent="1" source="-7LQJF7Gzw4gqhL1HugW-18" target="-7LQJF7Gzw4gqhL1HugW-27" edge="1">
          <mxGeometry relative="1" as="geometry" />
        </mxCell>
        <mxCell id="-7LQJF7Gzw4gqhL1HugW-18" value="movie-app-athena-database" style="sketch=0;outlineConnect=0;fontColor=#232F3E;gradientColor=none;fillColor=#3F8624;strokeColor=none;dashed=0;verticalLabelPosition=bottom;verticalAlign=top;align=center;html=1;fontSize=12;fontStyle=0;aspect=fixed;pointerEvents=1;shape=mxgraph.aws4.bucket;" parent="1" vertex="1">
          <mxGeometry x="600" y="880" width="75" height="78" as="geometry" />
        </mxCell>
        <mxCell id="N6blT2cabdBR4F-H1D71-21" style="edgeStyle=orthogonalEdgeStyle;rounded=0;orthogonalLoop=1;jettySize=auto;html=1;entryX=1;entryY=0.5;entryDx=0;entryDy=0;entryPerimeter=0;" edge="1" parent="1" source="-7LQJF7Gzw4gqhL1HugW-27" target="-7LQJF7Gzw4gqhL1HugW-29">
          <mxGeometry relative="1" as="geometry">
            <mxPoint x="503.00000000000045" y="1209" as="targetPoint" />
          </mxGeometry>
        </mxCell>
        <mxCell id="-7LQJF7Gzw4gqhL1HugW-27" value="triggerGlueCrawler&lt;br&gt;" style="sketch=0;points=[[0,0,0],[0.25,0,0],[0.5,0,0],[0.75,0,0],[1,0,0],[0,1,0],[0.25,1,0],[0.5,1,0],[0.75,1,0],[1,1,0],[0,0.25,0],[0,0.5,0],[0,0.75,0],[1,0.25,0],[1,0.5,0],[1,0.75,0]];outlineConnect=0;fontColor=#232F3E;gradientColor=#F78E04;gradientDirection=north;fillColor=#D05C17;strokeColor=#ffffff;dashed=0;verticalLabelPosition=bottom;verticalAlign=top;align=center;html=1;fontSize=12;fontStyle=0;aspect=fixed;shape=mxgraph.aws4.resourceIcon;resIcon=mxgraph.aws4.lambda;" parent="1" vertex="1">
          <mxGeometry x="599" y="1170" width="78" height="78" as="geometry" />
        </mxCell>
        <mxCell id="N6blT2cabdBR4F-H1D71-25" style="edgeStyle=orthogonalEdgeStyle;rounded=0;orthogonalLoop=1;jettySize=auto;html=1;" edge="1" parent="1" source="-7LQJF7Gzw4gqhL1HugW-29" target="-7LQJF7Gzw4gqhL1HugW-32">
          <mxGeometry relative="1" as="geometry" />
        </mxCell>
        <mxCell id="N6blT2cabdBR4F-H1D71-26" value="Auto Create Tables" style="edgeLabel;html=1;align=center;verticalAlign=middle;resizable=0;points=[];" vertex="1" connectable="0" parent="N6blT2cabdBR4F-H1D71-25">
          <mxGeometry x="-0.2066" y="-3" relative="1" as="geometry">
            <mxPoint x="-10" y="3" as="offset" />
          </mxGeometry>
        </mxCell>
        <mxCell id="-7LQJF7Gzw4gqhL1HugW-29" value="Glue Crawler" style="sketch=0;points=[[0,0,0],[0.25,0,0],[0.5,0,0],[0.75,0,0],[1,0,0],[0,1,0],[0.25,1,0],[0.5,1,0],[0.75,1,0],[1,1,0],[0,0.25,0],[0,0.5,0],[0,0.75,0],[1,0.25,0],[1,0.5,0],[1,0.75,0]];outlineConnect=0;fontColor=#232F3E;gradientColor=#945DF2;gradientDirection=north;fillColor=#5A30B5;strokeColor=#ffffff;dashed=0;verticalLabelPosition=bottom;verticalAlign=top;align=center;html=1;fontSize=12;fontStyle=0;aspect=fixed;shape=mxgraph.aws4.resourceIcon;resIcon=mxgraph.aws4.glue;" parent="1" vertex="1">
          <mxGeometry x="310" y="1170" width="78" height="78" as="geometry" />
        </mxCell>
        <mxCell id="-7LQJF7Gzw4gqhL1HugW-32" value="Athena" style="sketch=0;points=[[0,0,0],[0.25,0,0],[0.5,0,0],[0.75,0,0],[1,0,0],[0,1,0],[0.25,1,0],[0.5,1,0],[0.75,1,0],[1,1,0],[0,0.25,0],[0,0.5,0],[0,0.75,0],[1,0.25,0],[1,0.5,0],[1,0.75,0]];outlineConnect=0;fontColor=#232F3E;gradientColor=#945DF2;gradientDirection=north;fillColor=#5A30B5;strokeColor=#ffffff;dashed=0;verticalLabelPosition=bottom;verticalAlign=top;align=center;html=1;fontSize=12;fontStyle=0;aspect=fixed;shape=mxgraph.aws4.resourceIcon;resIcon=mxgraph.aws4.athena;" parent="1" vertex="1">
          <mxGeometry x="10" y="1170" width="78" height="78" as="geometry" />
        </mxCell>
        <mxCell id="-7LQJF7Gzw4gqhL1HugW-43" value="movie-app-dynamoDB&lt;br&gt;" style="outlineConnect=0;dashed=0;verticalLabelPosition=bottom;verticalAlign=top;align=center;html=1;shape=mxgraph.aws3.dynamo_db;fillColor=#2E73B8;gradientColor=none;" parent="1" vertex="1">
          <mxGeometry x="540" y="650" width="72" height="81" as="geometry" />
        </mxCell>
        <mxCell id="-7LQJF7Gzw4gqhL1HugW-59" style="edgeStyle=orthogonalEdgeStyle;rounded=0;orthogonalLoop=1;jettySize=auto;html=1;entryX=0.5;entryY=0;entryDx=0;entryDy=0;entryPerimeter=0;" parent="1" source="-7LQJF7Gzw4gqhL1HugW-46" target="-7LQJF7Gzw4gqhL1HugW-43" edge="1">
          <mxGeometry relative="1" as="geometry" />
        </mxCell>
        <mxCell id="-7LQJF7Gzw4gqhL1HugW-67" style="edgeStyle=orthogonalEdgeStyle;rounded=0;orthogonalLoop=1;jettySize=auto;html=1;" parent="1" source="-7LQJF7Gzw4gqhL1HugW-46" target="-7LQJF7Gzw4gqhL1HugW-64" edge="1">
          <mxGeometry relative="1" as="geometry" />
        </mxCell>
        <mxCell id="-7LQJF7Gzw4gqhL1HugW-46" value="getMovies" style="sketch=0;points=[[0,0,0],[0.25,0,0],[0.5,0,0],[0.75,0,0],[1,0,0],[0,1,0],[0.25,1,0],[0.5,1,0],[0.75,1,0],[1,1,0],[0,0.25,0],[0,0.5,0],[0,0.75,0],[1,0.25,0],[1,0.5,0],[1,0.75,0]];outlineConnect=0;fontColor=#232F3E;gradientColor=#F78E04;gradientDirection=north;fillColor=#D05C17;strokeColor=#ffffff;dashed=0;verticalLabelPosition=bottom;verticalAlign=top;align=center;html=1;fontSize=12;fontStyle=0;aspect=fixed;shape=mxgraph.aws4.resourceIcon;resIcon=mxgraph.aws4.lambda;" parent="1" vertex="1">
          <mxGeometry x="537" y="450" width="78" height="78" as="geometry" />
        </mxCell>
        <mxCell id="-7LQJF7Gzw4gqhL1HugW-58" style="edgeStyle=orthogonalEdgeStyle;rounded=0;orthogonalLoop=1;jettySize=auto;html=1;entryX=0.5;entryY=0;entryDx=0;entryDy=0;entryPerimeter=0;" parent="1" source="-7LQJF7Gzw4gqhL1HugW-47" target="-7LQJF7Gzw4gqhL1HugW-43" edge="1">
          <mxGeometry relative="1" as="geometry">
            <Array as="points">
              <mxPoint x="409" y="570" />
              <mxPoint x="576" y="570" />
            </Array>
          </mxGeometry>
        </mxCell>
        <mxCell id="-7LQJF7Gzw4gqhL1HugW-70" style="edgeStyle=orthogonalEdgeStyle;rounded=0;orthogonalLoop=1;jettySize=auto;html=1;entryX=0.5;entryY=1;entryDx=0;entryDy=0;entryPerimeter=0;" parent="1" source="-7LQJF7Gzw4gqhL1HugW-47" target="-7LQJF7Gzw4gqhL1HugW-64" edge="1">
          <mxGeometry relative="1" as="geometry">
            <Array as="points">
              <mxPoint x="409" y="420" />
              <mxPoint x="576" y="420" />
            </Array>
          </mxGeometry>
        </mxCell>
        <mxCell id="-7LQJF7Gzw4gqhL1HugW-47" value="getUserRecommendMovies" style="sketch=0;points=[[0,0,0],[0.25,0,0],[0.5,0,0],[0.75,0,0],[1,0,0],[0,1,0],[0.25,1,0],[0.5,1,0],[0.75,1,0],[1,1,0],[0,0.25,0],[0,0.5,0],[0,0.75,0],[1,0.25,0],[1,0.5,0],[1,0.75,0]];outlineConnect=0;fontColor=#232F3E;gradientColor=#F78E04;gradientDirection=north;fillColor=#D05C17;strokeColor=#ffffff;dashed=0;verticalLabelPosition=bottom;verticalAlign=top;align=center;html=1;fontSize=12;fontStyle=0;aspect=fixed;shape=mxgraph.aws4.resourceIcon;resIcon=mxgraph.aws4.lambda;" parent="1" vertex="1">
          <mxGeometry x="370" y="450" width="78" height="78" as="geometry" />
        </mxCell>
        <mxCell id="-7LQJF7Gzw4gqhL1HugW-60" style="edgeStyle=orthogonalEdgeStyle;rounded=0;orthogonalLoop=1;jettySize=auto;html=1;entryX=0.5;entryY=0;entryDx=0;entryDy=0;entryPerimeter=0;" parent="1" source="-7LQJF7Gzw4gqhL1HugW-48" target="-7LQJF7Gzw4gqhL1HugW-43" edge="1">
          <mxGeometry relative="1" as="geometry">
            <Array as="points">
              <mxPoint x="739" y="570" />
              <mxPoint x="576" y="570" />
            </Array>
          </mxGeometry>
        </mxCell>
        <mxCell id="-7LQJF7Gzw4gqhL1HugW-69" style="edgeStyle=orthogonalEdgeStyle;rounded=0;orthogonalLoop=1;jettySize=auto;html=1;entryX=0.5;entryY=1;entryDx=0;entryDy=0;entryPerimeter=0;" parent="1" source="-7LQJF7Gzw4gqhL1HugW-48" target="-7LQJF7Gzw4gqhL1HugW-64" edge="1">
          <mxGeometry relative="1" as="geometry">
            <Array as="points">
              <mxPoint x="739" y="420" />
              <mxPoint x="576" y="420" />
            </Array>
          </mxGeometry>
        </mxCell>
        <mxCell id="-7LQJF7Gzw4gqhL1HugW-48" value="setUserSelectedMovies&lt;br&gt;" style="sketch=0;points=[[0,0,0],[0.25,0,0],[0.5,0,0],[0.75,0,0],[1,0,0],[0,1,0],[0.25,1,0],[0.5,1,0],[0.75,1,0],[1,1,0],[0,0.25,0],[0,0.5,0],[0,0.75,0],[1,0.25,0],[1,0.5,0],[1,0.75,0]];outlineConnect=0;fontColor=#232F3E;gradientColor=#F78E04;gradientDirection=north;fillColor=#D05C17;strokeColor=#ffffff;dashed=0;verticalLabelPosition=bottom;verticalAlign=top;align=center;html=1;fontSize=12;fontStyle=0;aspect=fixed;shape=mxgraph.aws4.resourceIcon;resIcon=mxgraph.aws4.lambda;" parent="1" vertex="1">
          <mxGeometry x="700" y="450" width="78" height="78" as="geometry" />
        </mxCell>
        <mxCell id="-7LQJF7Gzw4gqhL1HugW-62" value="www.movieapp.paohenghsu.com" style="sketch=0;outlineConnect=0;fontColor=#232F3E;gradientColor=none;fillColor=#3F8624;strokeColor=none;dashed=0;verticalLabelPosition=bottom;verticalAlign=top;align=center;html=1;fontSize=12;fontStyle=0;aspect=fixed;pointerEvents=1;shape=mxgraph.aws4.bucket;" parent="1" vertex="1">
          <mxGeometry x="538.5" y="80" width="75" height="78" as="geometry" />
        </mxCell>
        <mxCell id="-7LQJF7Gzw4gqhL1HugW-71" style="edgeStyle=orthogonalEdgeStyle;rounded=0;orthogonalLoop=1;jettySize=auto;html=1;" parent="1" source="-7LQJF7Gzw4gqhL1HugW-64" target="-7LQJF7Gzw4gqhL1HugW-62" edge="1">
          <mxGeometry relative="1" as="geometry" />
        </mxCell>
        <mxCell id="-7LQJF7Gzw4gqhL1HugW-64" value="API Gateway&lt;br&gt;" style="sketch=0;points=[[0,0,0],[0.25,0,0],[0.5,0,0],[0.75,0,0],[1,0,0],[0,1,0],[0.25,1,0],[0.5,1,0],[0.75,1,0],[1,1,0],[0,0.25,0],[0,0.5,0],[0,0.75,0],[1,0.25,0],[1,0.5,0],[1,0.75,0]];outlineConnect=0;fontColor=#232F3E;gradientColor=#FF4F8B;gradientDirection=north;fillColor=#BC1356;strokeColor=#ffffff;dashed=0;verticalLabelPosition=bottom;verticalAlign=top;align=center;html=1;fontSize=12;fontStyle=0;aspect=fixed;shape=mxgraph.aws4.resourceIcon;resIcon=mxgraph.aws4.api_gateway;" parent="1" vertex="1">
          <mxGeometry x="537" y="270" width="78" height="78" as="geometry" />
        </mxCell>
        <mxCell id="-7LQJF7Gzw4gqhL1HugW-75" value="" style="edgeStyle=orthogonalEdgeStyle;rounded=0;orthogonalLoop=1;jettySize=auto;html=1;" parent="1" source="-7LQJF7Gzw4gqhL1HugW-73" target="-7LQJF7Gzw4gqhL1HugW-74" edge="1">
          <mxGeometry relative="1" as="geometry" />
        </mxCell>
        <mxCell id="-7LQJF7Gzw4gqhL1HugW-80" value="Cognito User&lt;br&gt;Check" style="edgeLabel;html=1;align=center;verticalAlign=middle;resizable=0;points=[];" parent="-7LQJF7Gzw4gqhL1HugW-75" vertex="1" connectable="0">
          <mxGeometry x="0.1679" relative="1" as="geometry">
            <mxPoint x="123" y="71" as="offset" />
          </mxGeometry>
        </mxCell>
        <mxCell id="-7LQJF7Gzw4gqhL1HugW-79" style="edgeStyle=orthogonalEdgeStyle;rounded=0;orthogonalLoop=1;jettySize=auto;html=1;" parent="1" source="-7LQJF7Gzw4gqhL1HugW-82" target="-7LQJF7Gzw4gqhL1HugW-62" edge="1">
          <mxGeometry relative="1" as="geometry" />
        </mxCell>
        <mxCell id="N6blT2cabdBR4F-H1D71-11" value="Origin Access Control&amp;nbsp;" style="edgeLabel;html=1;align=center;verticalAlign=middle;resizable=0;points=[];" vertex="1" connectable="0" parent="-7LQJF7Gzw4gqhL1HugW-79">
          <mxGeometry x="0.1289" y="1" relative="1" as="geometry">
            <mxPoint x="37" y="-8" as="offset" />
          </mxGeometry>
        </mxCell>
        <mxCell id="-7LQJF7Gzw4gqhL1HugW-73" value="User" style="sketch=0;outlineConnect=0;fontColor=#232F3E;gradientColor=none;fillColor=#232F3D;strokeColor=none;dashed=0;verticalLabelPosition=bottom;verticalAlign=top;align=center;html=1;fontSize=12;fontStyle=0;aspect=fixed;pointerEvents=1;shape=mxgraph.aws4.user;" parent="1" vertex="1">
          <mxGeometry x="-345" y="80" width="78" height="78" as="geometry" />
        </mxCell>
        <mxCell id="-7LQJF7Gzw4gqhL1HugW-76" style="edgeStyle=orthogonalEdgeStyle;rounded=0;orthogonalLoop=1;jettySize=auto;html=1;" parent="1" source="-7LQJF7Gzw4gqhL1HugW-74" target="-7LQJF7Gzw4gqhL1HugW-64" edge="1">
          <mxGeometry relative="1" as="geometry" />
        </mxCell>
        <mxCell id="-7LQJF7Gzw4gqhL1HugW-78" value="API authentication" style="edgeLabel;html=1;align=center;verticalAlign=middle;resizable=0;points=[];" parent="-7LQJF7Gzw4gqhL1HugW-76" vertex="1" connectable="0">
          <mxGeometry x="-0.0345" y="3" relative="1" as="geometry">
            <mxPoint x="-1" as="offset" />
          </mxGeometry>
        </mxCell>
        <mxCell id="-7LQJF7Gzw4gqhL1HugW-74" value="" style="sketch=0;points=[[0,0,0],[0.25,0,0],[0.5,0,0],[0.75,0,0],[1,0,0],[0,1,0],[0.25,1,0],[0.5,1,0],[0.75,1,0],[1,1,0],[0,0.25,0],[0,0.5,0],[0,0.75,0],[1,0.25,0],[1,0.5,0],[1,0.75,0]];outlineConnect=0;fontColor=#232F3E;gradientColor=#F54749;gradientDirection=north;fillColor=#C7131F;strokeColor=#ffffff;dashed=0;verticalLabelPosition=bottom;verticalAlign=top;align=center;html=1;fontSize=12;fontStyle=0;aspect=fixed;shape=mxgraph.aws4.resourceIcon;resIcon=mxgraph.aws4.cognito;" parent="1" vertex="1">
          <mxGeometry x="293" y="270" width="78" height="78" as="geometry" />
        </mxCell>
        <mxCell id="N6blT2cabdBR4F-H1D71-1" value="" style="edgeStyle=orthogonalEdgeStyle;rounded=0;orthogonalLoop=1;jettySize=auto;html=1;" edge="1" parent="1" source="-7LQJF7Gzw4gqhL1HugW-73" target="-7LQJF7Gzw4gqhL1HugW-82">
          <mxGeometry relative="1" as="geometry">
            <mxPoint x="-46" y="119" as="sourcePoint" />
            <mxPoint x="539" y="119" as="targetPoint" />
          </mxGeometry>
        </mxCell>
        <mxCell id="N6blT2cabdBR4F-H1D71-2" value="www.movieapp.paohenghsu.com" style="edgeLabel;html=1;align=center;verticalAlign=middle;resizable=0;points=[];" vertex="1" connectable="0" parent="N6blT2cabdBR4F-H1D71-1">
          <mxGeometry x="-0.1846" y="3" relative="1" as="geometry">
            <mxPoint x="33" y="24" as="offset" />
          </mxGeometry>
        </mxCell>
        <mxCell id="-7LQJF7Gzw4gqhL1HugW-82" value="CloudFront" style="sketch=0;points=[[0,0,0],[0.25,0,0],[0.5,0,0],[0.75,0,0],[1,0,0],[0,1,0],[0.25,1,0],[0.5,1,0],[0.75,1,0],[1,1,0],[0,0.25,0],[0,0.5,0],[0,0.75,0],[1,0.25,0],[1,0.5,0],[1,0.75,0]];outlineConnect=0;fontColor=#232F3E;gradientColor=#945DF2;gradientDirection=north;fillColor=#5A30B5;strokeColor=#ffffff;dashed=0;verticalLabelPosition=bottom;verticalAlign=top;align=center;html=1;fontSize=12;fontStyle=0;aspect=fixed;shape=mxgraph.aws4.resourceIcon;resIcon=mxgraph.aws4.cloudfront;" parent="1" vertex="1">
          <mxGeometry x="150" y="80" width="78" height="78" as="geometry" />
        </mxCell>
        <mxCell id="N6blT2cabdBR4F-H1D71-8" style="edgeStyle=orthogonalEdgeStyle;rounded=0;orthogonalLoop=1;jettySize=auto;html=1;" edge="1" parent="1" source="N6blT2cabdBR4F-H1D71-4" target="N6blT2cabdBR4F-H1D71-5">
          <mxGeometry relative="1" as="geometry" />
        </mxCell>
        <mxCell id="N6blT2cabdBR4F-H1D71-4" value="User" style="sketch=0;outlineConnect=0;fontColor=#232F3E;gradientColor=none;fillColor=#232F3D;strokeColor=none;dashed=0;verticalLabelPosition=bottom;verticalAlign=top;align=center;html=1;fontSize=12;fontStyle=0;aspect=fixed;pointerEvents=1;shape=mxgraph.aws4.user;" vertex="1" parent="1">
          <mxGeometry x="-345" y="270" width="78" height="78" as="geometry" />
        </mxCell>
        <mxCell id="N6blT2cabdBR4F-H1D71-6" style="edgeStyle=orthogonalEdgeStyle;rounded=0;orthogonalLoop=1;jettySize=auto;html=1;entryX=0.5;entryY=1;entryDx=0;entryDy=0;entryPerimeter=0;" edge="1" parent="1" source="N6blT2cabdBR4F-H1D71-5" target="-7LQJF7Gzw4gqhL1HugW-82">
          <mxGeometry relative="1" as="geometry" />
        </mxCell>
        <mxCell id="N6blT2cabdBR4F-H1D71-7" value="Cloudfront Function&lt;br&gt;Redirect" style="edgeLabel;html=1;align=center;verticalAlign=middle;resizable=0;points=[];" vertex="1" connectable="0" parent="N6blT2cabdBR4F-H1D71-6">
          <mxGeometry x="0.2942" y="-1" relative="1" as="geometry">
            <mxPoint as="offset" />
          </mxGeometry>
        </mxCell>
        <mxCell id="N6blT2cabdBR4F-H1D71-5" value="CloudFront" style="sketch=0;points=[[0,0,0],[0.25,0,0],[0.5,0,0],[0.75,0,0],[1,0,0],[0,1,0],[0.25,1,0],[0.5,1,0],[0.75,1,0],[1,1,0],[0,0.25,0],[0,0.5,0],[0,0.75,0],[1,0.25,0],[1,0.5,0],[1,0.75,0]];outlineConnect=0;fontColor=#232F3E;gradientColor=#945DF2;gradientDirection=north;fillColor=#5A30B5;strokeColor=#ffffff;dashed=0;verticalLabelPosition=bottom;verticalAlign=top;align=center;html=1;fontSize=12;fontStyle=0;aspect=fixed;shape=mxgraph.aws4.resourceIcon;resIcon=mxgraph.aws4.cloudfront;" vertex="1" parent="1">
          <mxGeometry x="10" y="270" width="78" height="78" as="geometry" />
        </mxCell>
        <mxCell id="N6blT2cabdBR4F-H1D71-9" value="&lt;span style=&quot;color: rgb(0, 0, 0); font-family: Helvetica; font-size: 11px; font-style: normal; font-variant-ligatures: normal; font-variant-caps: normal; font-weight: 400; letter-spacing: normal; orphans: 2; text-align: center; text-indent: 0px; text-transform: none; widows: 2; word-spacing: 0px; -webkit-text-stroke-width: 0px; background-color: rgb(255, 255, 255); text-decoration-thickness: initial; text-decoration-style: initial; text-decoration-color: initial; float: none; display: inline !important;&quot;&gt;movieapp.paohenghsu.com&lt;/span&gt;" style="text;whiteSpace=wrap;html=1;" vertex="1" parent="1">
          <mxGeometry x="-200" y="320" width="190" height="40" as="geometry" />
        </mxCell>
        <mxCell id="N6blT2cabdBR4F-H1D71-32" value="SQL Operation on&lt;br style=&quot;border-color: var(--border-color);&quot;&gt;movie-app-athena-database" style="edgeStyle=orthogonalEdgeStyle;rounded=0;orthogonalLoop=1;jettySize=auto;html=1;" edge="1" parent="1" source="N6blT2cabdBR4F-H1D71-28" target="-7LQJF7Gzw4gqhL1HugW-32">
          <mxGeometry relative="1" as="geometry" />
        </mxCell>
        <mxCell id="N6blT2cabdBR4F-H1D71-28" value="User" style="sketch=0;outlineConnect=0;fontColor=#232F3E;gradientColor=none;fillColor=#232F3D;strokeColor=none;dashed=0;verticalLabelPosition=bottom;verticalAlign=top;align=center;html=1;fontSize=12;fontStyle=0;aspect=fixed;pointerEvents=1;shape=mxgraph.aws4.user;" vertex="1" parent="1">
          <mxGeometry x="-345" y="1170" width="78" height="78" as="geometry" />
        </mxCell>
        <mxCell id="N6blT2cabdBR4F-H1D71-37" value="" style="edgeStyle=orthogonalEdgeStyle;rounded=0;orthogonalLoop=1;jettySize=auto;html=1;entryX=0;entryY=0.5;entryDx=0;entryDy=0;entryPerimeter=0;" edge="1" parent="1" source="-7LQJF7Gzw4gqhL1HugW-9" target="-7LQJF7Gzw4gqhL1HugW-5">
          <mxGeometry relative="1" as="geometry">
            <mxPoint x="-72" y="914" as="sourcePoint" />
            <mxPoint x="297" y="997" as="targetPoint" />
            <Array as="points">
              <mxPoint x="20" y="914" />
              <mxPoint x="20" y="997" />
            </Array>
          </mxGeometry>
        </mxCell>
        <mxCell id="-7LQJF7Gzw4gqhL1HugW-5" value="csvToS3Database" style="sketch=0;points=[[0,0,0],[0.25,0,0],[0.5,0,0],[0.75,0,0],[1,0,0],[0,1,0],[0.25,1,0],[0.5,1,0],[0.75,1,0],[1,1,0],[0,0.25,0],[0,0.5,0],[0,0.75,0],[1,0.25,0],[1,0.5,0],[1,0.75,0]];outlineConnect=0;fontColor=#232F3E;gradientColor=#F78E04;gradientDirection=north;fillColor=#D05C17;strokeColor=#ffffff;dashed=0;verticalLabelPosition=bottom;verticalAlign=top;align=center;html=1;fontSize=12;fontStyle=0;aspect=fixed;shape=mxgraph.aws4.resourceIcon;resIcon=mxgraph.aws4.lambda;" parent="1" vertex="1">
          <mxGeometry x="232" y="958" width="78" height="78" as="geometry" />
        </mxCell>
      </root>
    </mxGraphModel>
  </diagram>
</mxfile>
